{"accessors":[{"bufferView":0,"componentType":5123,"count":2496,"max":[715],"min":[0],"type":"SCALAR"},{"bufferView":1,"componentType":5126,"count":716,"max":[60.3731575012207,6.156917572021484,-18.22698974609375],"min":[-6.81231689453125,5.956917762756348,-24.626998901367188],"type":"VEC3"},{"bufferView":2,"componentType":5126,"count":716,"max":[1.0,1.0,1.0],"min":[-1.0,-1.0,-1.0],"type":"VEC3"},{"bufferView":3,"componentType":5126,"count":716,"max":[2.689411163330078,3.3490829467773438],"min":[-2.689411163330078,2.342236042022705],"type":"VEC2"},{"bufferView":4,"componentType":5121,"count":84,"max":[47],"min":[0],"type":"SCALAR"},{"bufferView":5,"componentType":5126,"count":48,"max":[53.67768478393555,10.749996185302734,11.88302230834961],"min":[-0.10231590270996094,10.549996376037598,-18.22576141357422],"type":"VEC3"},{"bufferView":6,"componentType":5126,"count":48,"max":[1.0,1.0,1.0],"min":[-1.0,-1.0,-1.0],"type":"VEC3"},{"bufferView":7,"componentType":5123,"count":2808,"max":[1723],"min":[0],"type":"SCALAR"},{"bufferView":8,"componentType":5126,"count":1724,"max":[60.3731575012207,5.249999046325684,-18.22698974609375],"min":[-6.81231689453125,0.7499988079071045,-24.626998901367188],"type":"VEC3"},{"bufferView":9,"componentType":5126,"count":1724,"max":[1.0,1.0,1.0],"min":[-1.0,-1.0,-1.0],"type":"VEC3"},{"bufferView":10,"componentType":5126,"count":1724,"max":[2.6248855590820312,3.777308464050293],"min":[-2.7614707946777344,2.8244919776916504],"type":"VEC2"},{"bufferView":11,"componentType":5123,"count":1896,"max":[751],"min":[0],"type":"SCALAR"},{"bufferView":12,"componentType":5126,"count":752,"max":[23.987686157226562,15.94999885559082,-18.206989288330078],"min":[-0.4123191833496094,0.7499988079071045,-67.0469970703125],"type":"VEC3"},{"bufferView":13,"componentType":5126,"count":752,"max":[1.0,1.0,1.0],"min":[-1.0,-1.0,-1.0],"type":"VEC3"},{"bufferView":14,"componentType":5126,"count":752,"max":[2.4506263732910156,-11.963038444519043],"min":[-2.4506263732910156,-15.038162231445312],"type":"VEC2"},{"bufferView":15,"componentType":5123,"count":5052,"max":[2343],"min":[0],"type":"SCALAR"},{"bufferView":16,"componentType":5126,"count":2344,"max":[53.98768997192383,10.749999046325684,12.193012237548828],"min":[-0.4123191833496094,0.7499988079071045,-67.0469970703125],"type":"VEC3"},{"bufferView":17,"componentType":5126,"count":2344,"max":[1.0,1.0,1.0],"min":[-1.0,-1.0,-1.0],"type":"VEC3"},{"bufferView":18,"componentType":5126,"count":2344,"max":[2.5265884399414062,4.182163238525391],"min":[-2.5265884399414062,-0.7833595275878906],"type":"VEC2"},{"bufferView":19,"componentType":5125,"count":213024,"max":[71799],"min":[0],"type":"SCALAR"},{"bufferView":20,"componentType":5126,"count":71800,"max":[60.37316131591797,19.033077239990234,13.513008117675781],"min":[-6.812313079833984,0.7499982118606567,-67.18199157714844],"type":"VEC3"},{"bufferView":21,"componentType":5126,"count":71800,"max":[1.0,1.0,1.0],"min":[-1.0,-1.0,-1.0],"type":"VEC3"},{"bufferView":22,"componentType":5126,"count":71800,"max":[2.692760467529297,4.854030609130859],"min":[-2.6927566528320312,-0.19589614868164062],"type":"VEC2"},{"bufferView":23,"componentType":5123,"count":2904,"max":[1743],"min":[0],"type":"SCALAR"},{"bufferView":24,"componentType":5126,"count":1744,"max":[60.37316131591797,5.253951072692871,-18.22698974609375],"min":[-6.812313079833984,0.7499988079071045,-24.626998901367188],"type":"VEC3"},{"bufferView":25,"componentType":5126,"count":1744,"max":[1.0,1.0,1.0],"min":[-1.0,-1.0,-1.0],"type":"VEC3"},{"bufferView":26,"componentType":5126,"count":1744,"max":[2.757892608642578,3.770120143890381],"min":[-2.6212081909179688,2.81770658493042],"type":"VEC2"},{"bufferView":27,"componentType":5123,"count":253320,"max":[49551],"min":[0],"type":"SCALAR"},{"bufferView":28,"componentType":5126,"count":49552,"max":[60.46933364868164,19.135385513305664,12.30001449584961],"min":[-6.908502578735352,5.249998569488525,-67.23002624511719],"type":"VEC3"},{"bufferView":29,"componentType":5126,"count":49552,"max":[1.0,1.0,1.0],"min":[-1.0,-1.0,-1.0],"type":"VEC3"},{"bufferView":30,"componentType":5126,"count":49552,"max":[2.7036056518554688,4.150264739990234],"min":[-2.7036056518554688,-0.8473129272460938],"type":"VEC2"},{"bufferView":31,"componentType":5121,"count":210,"max":[115],"min":[0],"type":"SCALAR"},{"bufferView":32,"componentType":5126,"count":116,"max":[53.98768997192383,18.87625503540039,11.883018493652344],"min":[-0.10232162475585938,10.749996185302734,-66.81175231933594],"type":"VEC3"},{"bufferView":33,"componentType":5126,"count":116,"max":[1.0,0.9997531771659851,1.0],"min":[-1.0,-1.0,-1.0],"type":"VEC3"},{"bufferView":34,"componentType":5126,"count":116,"max":[38.69414520263672,41.02906036376953],"min":[-40.02892303466797,-37.773155212402344],"type":"VEC2"},{"bufferView":35,"componentType":5123,"count":4932,"max":[3263],"min":[0],"type":"SCALAR"},{"bufferView":36,"componentType":5126,"count":3264,"max":[53.977691650390625,15.94999885559082,12.18301010131836],"min":[-0.4023170471191406,0.7499988079071045,-67.0369873046875],"type":"VEC3"},{"bufferView":37,"componentType":5126,"count":3264,"max":[1.0,1.0,1.0],"min":[-1.0,-1.0,-1.0],"type":"VEC3"},{"bufferView":38,"componentType":5126,"count":3264,"max":[2.519336700439453,4.175025939941406],"min":[-2.519336700439453,-0.7762222290039062],"type":"VEC2"},{"bufferView":39,"componentType":5123,"count":3348,"max":[2231],"min":[0],"type":"SCALAR"},{"bufferView":40,"componentType":5126,"count":2232,"max":[53.877689361572266,8.149998664855957,12.0830078125],"min":[-0.3023185729980469,0.7499988079071045,-65.71698760986328],"type":"VEC3"},{"bufferView":41,"componentType":5126,"count":2232,"max":[1.0,1.0,1.0],"min":[-1.0,-1.0,-1.0],"type":"VEC3"},{"bufferView":42,"componentType":5126,"count":2232,"max":[2.5130882263183594,4.740653991699219],"min":[-2.5130882263183594,-0.12184906005859375],"type":"VEC2"},{"bufferView":43,"componentType":5125,"count":613917,"max":[368793],"min":[0],"type":"SCALAR"},{"bufferView":44,"componentType":5126,"count":368794,"max":[58.998565673828125,11.7496976852417,12.1087646484375],"min":[-5.437725067138672,0.7499547600746155,-66.96611022949219],"type":"VEC3"},{"bufferView":45,"componentType":5126,"count":368794,"max":[1.0,1.0,1.0],"min":[-1.0,-1.0,-1.0],"type":"VEC3"},{"bufferView":46,"componentType":5126,"count":368794,"max":[2.6147541999816895,4.1796722412109375],"min":[-2.6147265434265137,-0.7847785949707031],"type":"VEC2"},{"bufferView":47,"componentType":5126,"count":368794,"max":[8718.9921875,8686.69921875],"min":[-8931.888671875,-8835.4140625],"type":"VEC2"},{"bufferView":48,"componentType":5125,"count":540975,"max":[311162],"min":[0],"type":"SCALAR"},{"bufferView":49,"componentType":5126,"count":311163,"max":[58.95484924316406,11.749698638916016,12.103736877441406],"min":[-5.394012451171875,0.7499554753303528,-66.9610824584961],"type":"VEC3"},{"bufferView":50,"componentType":5126,"count":311163,"max":[1.0,1.0,1.0],"min":[-1.0,-1.0,-1.0],"type":"VEC3"},{"bufferView":51,"componentType":5126,"count":311163,"max":[1.70953369140625,0.0469970703125],"min":[0.906494140625,-1.1695556640625],"type":"VEC2"},{"bufferView":52,"componentType":5126,"count":311163,"max":[8717.0439453125,8680.6015625],"min":[-8929.8876953125,-8829.3173828125],"type":"VEC2"},{"bufferView":53,"componentType":5125,"count":191472,"max":[112909],"min":[0],"type":"SCALAR"},{"bufferView":54,"componentType":5126,"count":112910,"max":[58.95484924316406,11.749698638916016,12.09576416015625],"min":[-5.394012451171875,0.7499554753303528,-66.95310974121094],"type":"VEC3"},{"bufferView":55,"componentType":5126,"count":112910,"max":[1.0,1.0,1.0],"min":[-1.0,-1.0,-1.0],"type":"VEC3"},{"bufferView":56,"componentType":5126,"count":112910,"max":[636.8370361328125,27.985456466674805],"min":[-635.8370361328125,-173.4390869140625],"type":"VEC2"},{"bufferView":57,"componentType":5126,"count":112910,"max":[8717.0439453125,8680.6015625],"min":[-8929.8876953125,-8829.3173828125],"type":"VEC2"},{"bufferView":58,"componentType":5123,"count":34344,"max":[19903],"min":[0],"type":"SCALAR"},{"bufferView":59,"componentType":5126,"count":19904,"max":[58.955142974853516,11.68859577178955,12.09865951538086],"min":[-5.394306182861328,0.8110716938972473,-66.95600891113281],"type":"VEC3"},{"bufferView":60,"componentType":5126,"count":19904,"max":[1.0,1.0,1.0],"min":[-1.0,-1.0,-1.0],"type":"VEC3"},{"bufferView":61,"componentType":5126,"count":19904,"max":[2.6002960205078125,4.168174743652344],"min":[-2.6002960205078125,-0.7727432250976562],"type":"VEC2"},{"bufferView":62,"componentType":5126,"count":19904,"max":[8719.029296875,212.87832641601562],"min":[-8790.865234375,-596.5624389648438],"type":"VEC2"},{"bufferView":63,"componentType":5123,"count":12732,"max":[7684],"min":[0],"type":"SCALAR"},{"bufferView":64,"componentType":5126,"count":7685,"max":[58.984275817871094,5.9735565185546875,12.062767028808594],"min":[-5.423439025878906,2.8589110374450684,-24.506738662719727],"type":"VEC3"},{"bufferView":65,"componentType":5126,"count":7685,"max":[1.0,1.0,1.0],"min":[-1.0,-1.0,-1.0],"type":"VEC3"},{"bufferView":66,"componentType":5126,"count":7685,"max":[1.0000061988830566,1.0278325080871582],"min":[-0.005447737872600555,-0.027832508087158203],"type":"VEC2"},{"bufferView":67,"componentType":5126,"count":7685,"max":[5.275634765625,9.478752136230469],"min":[-610.6741943359375,-345.42236328125],"type":"VEC2"},{"bufferView":68,"componentType":5123,"count":184320,"max":[36239],"min":[0],"type":"SCALAR"},{"bufferView":69,"componentType":5126,"count":36240,"max":[56.41301345825195,3.4702441692352295,12.152534484863281],"min":[-2.8521690368652344,2.8946948051452637,-24.596511840820312],"type":"VEC3"},{"bufferView":70,"componentType":5126,"count":36240,"max":[1.0,0.999376654624939,1.0],"min":[-1.0,-0.9999973177909851,-1.0],"type":"VEC3"},{"bufferView":71,"componentType":5126,"count":36240,"max":[1.0344173908233643,1.0295406579971313],"min":[-0.0065073780715465546,-0.029540657997131348],"type":"VEC2"},{"bufferView":72,"componentType":5126,"count":36240,"max":[14792.830078125,225.54571533203125],"min":[-299.7078857421875,-93.34292602539062],"type":"VEC2"},{"bufferView":73,"componentType":5123,"count":113022,"max":[43673],"min":[0],"type":"SCALAR"},{"bufferView":74,"componentType":5126,"count":43674,"max":[60.445560455322266,0.7500000596046448,14.993019104003906],"min":[-6.8847198486328125,-1.1473894119262695e-06,-69.38179016113281],"type":"VEC3"},{"bufferView":75,"componentType":5126,"count":43674,"max":[1.0,1.0,1.0],"min":[-1.0,-1.0,-1.0],"type":"VEC3"},{"bufferView":76,"componentType":5126,"count":43674,"max":[2.6939239501953125,4.577526092529297],"min":[-2.6939239501953125,-0.6980628967285156],"type":"VEC2"}],"asset":{"generator":"Verge3D for Blender v4.7.1","version":"2.0"},"bufferViews":[{"buffer":0,"byteLength":4992,"byteOffset":0,"target":34963},{"buffer":0,"byteLength":8592,"byteOffset":4992,"target":34962},{"buffer":0,"byteLength":8592,"byteOffset":13584,"target":34962},{"buffer":0,"byteLength":5728,"byteOffset":22176,"target":34962},{"buffer":0,"byteLength":84,"byteOffset":27904,"target":34963},{"buffer":0,"byteLength":576,"byteOffset":27988,"target":34962},{"buffer":0,"byteLength":576,"byteOffset":28564,"target":34962},{"buffer":0,"byteLength":5616,"byteOffset":29140,"target":34963},{"buffer":0,"byteLength":20688,"byteOffset":34756,"target":34962},{"buffer":0,"byteLength":20688,"byteOffset":55444,"target":34962},{"buffer":0,"byteLength":13792,"byteOffset":76132,"target":34962},{"buffer":0,"byteLength":3792,"byteOffset":89924,"target":34963},{"buffer":0,"byteLength":9024,"byteOffset":93716,"target":34962},{"buffer":0,"byteLength":9024,"byteOffset":102740,"target":34962},{"buffer":0,"byteLength":6016,"byteOffset":111764,"target":34962},{"buffer":0,"byteLength":10104,"byteOffset":117780,"target":34963},{"buffer":0,"byteLength":28128,"byteOffset":127884,"target":34962},{"buffer":0,"byteLength":28128,"byteOffset":156012,"target":34962},{"buffer":0,"byteLength":18752,"byteOffset":184140,"target":34962},{"buffer":0,"byteLength":852096,"byteOffset":202892,"target":34963},{"buffer":0,"byteLength":861600,"byteOffset":1054988,"target":34962},{"buffer":0,"byteLength":861600,"byteOffset":1916588,"target":34962},{"buffer":0,"byteLength":574400,"byteOffset":2778188,"target":34962},{"buffer":0,"byteLength":5808,"byteOffset":3352588,"target":34963},{"buffer":0,"byteLength":20928,"byteOffset":3358396,"target":34962},{"buffer":0,"byteLength":20928,"byteOffset":3379324,"target":34962},{"buffer":0,"byteLength":13952,"byteOffset":3400252,"target":34962},{"buffer":0,"byteLength":506640,"byteOffset":3414204,"target":34963},{"buffer":0,"byteLength":594624,"byteOffset":3920844,"target":34962},{"buffer":0,"byteLength":594624,"byteOffset":4515468,"target":34962},{"buffer":0,"byteLength":396416,"byteOffset":5110092,"target":34962},{"buffer":0,"byteLength":210,"byteOffset":5506508,"target":34963},{"buffer":0,"byteLength":1392,"byteOffset":5506720,"target":34962},{"buffer":0,"byteLength":1392,"byteOffset":5508112,"target":34962},{"buffer":0,"byteLength":928,"byteOffset":5509504,"target":34962},{"buffer":0,"byteLength":9864,"byteOffset":5510432,"target":34963},{"buffer":0,"byteLength":39168,"byteOffset":5520296,"target":34962},{"buffer":0,"byteLength":39168,"byteOffset":5559464,"target":34962},{"buffer":0,"byteLength":26112,"byteOffset":5598632,"target":34962},{"buffer":0,"byteLength":6696,"byteOffset":5624744,"target":34963},{"buffer":0,"byteLength":26784,"byteOffset":5631440,"target":34962},{"buffer":0,"byteLength":26784,"byteOffset":5658224,"target":34962},{"buffer":0,"byteLength":17856,"byteOffset":5685008,"target":34962},{"buffer":0,"byteLength":2455668,"byteOffset":5702864,"target":34963},{"buffer":0,"byteLength":4425528,"byteOffset":8158532,"target":34962},{"buffer":0,"byteLength":4425528,"byteOffset":12584060,"target":34962},{"buffer":0,"byteLength":2950352,"byteOffset":17009588,"target":34962},{"buffer":0,"byteLength":2950352,"byteOffset":19959940,"target":34962},{"buffer":0,"byteLength":2163900,"byteOffset":22910292,"target":34963},{"buffer":0,"byteLength":3733956,"byteOffset":25074192,"target":34962},{"buffer":0,"byteLength":3733956,"byteOffset":28808148,"target":34962},{"buffer":0,"byteLength":2489304,"byteOffset":32542104,"target":34962},{"buffer":0,"byteLength":2489304,"byteOffset":35031408,"target":34962},{"buffer":0,"byteLength":765888,"byteOffset":37520712,"target":34963},{"buffer":0,"byteLength":1354920,"byteOffset":38286600,"target":34962},{"buffer":0,"byteLength":1354920,"byteOffset":39641520,"target":34962},{"buffer":0,"byteLength":903280,"byteOffset":40996440,"target":34962},{"buffer":0,"byteLength":903280,"byteOffset":41899720,"target":34962},{"buffer":0,"byteLength":68688,"byteOffset":42803000,"target":34963},{"buffer":0,"byteLength":238848,"byteOffset":42871688,"target":34962},{"buffer":0,"byteLength":238848,"byteOffset":43110536,"target":34962},{"buffer":0,"byteLength":159232,"byteOffset":43349384,"target":34962},{"buffer":0,"byteLength":159232,"byteOffset":43508616,"target":34962},{"buffer":0,"byteLength":25464,"byteOffset":43667848,"target":34963},{"buffer":0,"byteLength":92220,"byteOffset":43693312,"target":34962},{"buffer":0,"byteLength":92220,"byteOffset":43785532,"target":34962},{"buffer":0,"byteLength":61480,"byteOffset":43877752,"target":34962},{"buffer":0,"byteLength":61480,"byteOffset":43939232,"target":34962},{"buffer":0,"byteLength":368640,"byteOffset":44000712,"target":34963},{"buffer":0,"byteLength":434880,"byteOffset":44369352,"target":34962},{"buffer":0,"byteLength":434880,"byteOffset":44804232,"target":34962},{"buffer":0,"byteLength":289920,"byteOffset":45239112,"target":34962},{"buffer":0,"byteLength":289920,"byteOffset":45529032,"target":34962},{"buffer":0,"byteLength":226044,"byteOffset":45818952,"target":34963},{"buffer":0,"byteLength":524088,"byteOffset":46044996,"target":34962},{"buffer":0,"byteLength":524088,"byteOffset":46569084,"target":34962},{"buffer":0,"byteLength":349392,"byteOffset":47093172,"target":34962}],"buffers":[{"byteLength":47442564,"uri":"游泳馆体育馆大楼.bin"}],"cameras":[{"extensions":{"S8S_v3d_camera":{"controls":"ORBIT","enablePan":true,"moveSpeed":1.0,"orbitMaxDistance":100.0,"orbitMaxPolarAngle":3.1415927410125732,"orbitMaxZoom":100.0,"orbitMinDistance":0.0,"orbitMinPolarAngle":0.0,"orbitMinZoom":0.009999999776482582,"orbitTarget":[0.0,0.0,-0.0],"rotateSpeed":1.0,"viewportFitInitialAspect":1.7777777777777777,"viewportFitType":"AUTO"}},"name":"Camera","perspective":{"aspectRatio":1.7777777777777777,"yfov":0.39959652046304894,"zfar":100.0,"znear":0.10000000149011612},"type":"perspective"}],"extensions":{"S8S_v3d_lights":{"lights":[{"color":[1.0,1.0,1.0],"decay":2,"distance":31.622776955095866,"intensity":1000.0,"name":"Light","power":1000.0,"profile":"blender","shadow":{"bias":-0.0018,"cameraFar":31.622776955095866,"cameraFov":0,"cameraNear":0.05000000074505806,"enabled":true,"expBias":2.5,"mapSize":512,"radius":1.0,"slopeScaledBias":2.5},"type":"point"}]}},"extensionsUsed":["S8S_v3d_materials","S8S_v3d_camera","S8S_v3d_lights","S8S_v3d_mesh","S8S_v3d_node","S8S_v3d_scene"],"materials":[{"alphaMode":"OPAQUE","extensions":{"S8S_v3d_materials":{"gtaoVisible":true,"materialIndex":0,"nodeGraph":{"edges":[{"fromNode":0,"fromOutput":0,"toInput":0,"toNode":1},{"fromNode":2,"fromOutput":0,"toInput":0,"toNode":0}],"nodes":[{"inputs":[[0.800000011920929,0.800000011920929,0.800000011920929,1.0],0.0,1.0,1.4500000476837158,1.0,[0.0,0.0,0.0],0.0,[1.0,0.20000000298023224,0.10000000149011612],0.05000000074505806,1.399999976158142,0.0,0.5,[1.0,1.0,1.0,1.0],0.0,0.0,[0.0,0.0,0.0],0.0,0.0,0.029999999329447746,1.5,[1.0,1.0,1.0,1.0],[0.0,0.0,0.0],0.0,0.5,[1.0,1.0,1.0,1.0],[0.0,0.0,0.0,1.0],1.0,0.0,1.3300000429153442],"is_active_output":false,"name":"Principled BSDF","outputs":[[0,0,0,0]],"type":"BSDF_PRINCIPLED_BL"},{"inputs":[[0,0,0,0],[0,0,0,0],[0.0,0.0,0.0],0.0],"is_active_output":true,"name":"Material Output","outputs":[],"type":"OUTPUT_MATERIAL_BL"},{"inputs":[[0.02909955009818077,0.02909955009818077,0.02909955009818077,1.0],1.0,[0.0,0.0,0.0]],"is_active_output":false,"name":"Ambient Occlusion","outputs":[[0.0,0.0,0.0,0.0],0.0],"type":"AMBIENT_OCCLUSION_BL"}]}}},"name":"mDark"},{"alphaMode":"OPAQUE","extensions":{"S8S_v3d_materials":{"gtaoVisible":true,"materialIndex":0,"nodeGraph":{"edges":[{"fromNode":0,"fromOutput":0,"toInput":0,"toNode":1},{"fromNode":2,"fromOutput":0,"toInput":0,"toNode":0},{"fromNode":3,"fromOutput":0,"toInput":2,"toNode":2}],"nodes":[{"inputs":[[0.0063701048493385315,0.0063701048493385315,0.0063701048493385315,1.0],0.0,0.2846153974533081,1.4500000476837158,1.0,[0.0,0.0,0.0],0.0,[1.0,0.20000000298023224,0.10000000149011612],0.05000000074505806,1.399999976158142,0.0,0.5,[1.0,1.0,1.0,1.0],0.0,0.0,[0.0,0.0,0.0],0.0,0.0,0.029999999329447746,1.5,[1.0,1.0,1.0,1.0],[0.0,0.0,0.0],0.0,0.5,[1.0,1.0,1.0,1.0],[0.0,0.0,0.0,1.0],1.0,0.0,1.3300000429153442],"is_active_output":false,"name":"Principled BSDF","outputs":[[0,0,0,0]],"type":"BSDF_PRINCIPLED_BL"},{"inputs":[[0,0,0,0],[0,0,0,0],[0.0,0.0,0.0],0.0],"is_active_output":true,"name":"Material Output","outputs":[],"type":"OUTPUT_MATERIAL_BL"},{"inputs":[[0.010021816939115524,0.010021816939115524,0.010021816939115524,1.0],1.0,[0.0,0.0,0.0]],"is_active_output":false,"name":"Ambient Occlusion","outputs":[[0.0,0.0,0.0,0.0],0.0],"type":"AMBIENT_OCCLUSION_BL"},{"inputs":[0.05000000074505806,[0.0,0.0,0.0]],"is_active_output":false,"name":"Bevel","outputs":[[0.0,0.0,0.0]],"type":"BEVEL_BL"}]}}},"name":"mDark shine"},{"alphaMode":"OPAQUE","extensions":{"S8S_v3d_materials":{"gtaoVisible":true,"materialIndex":0,"nodeGraph":{"edges":[{"fromNode":1,"fromOutput":0,"toInput":0,"toNode":0}],"nodes":[{"inputs":[[0,0,0,0],[0,0,0,0],[0.0,0.0,0.0],0.0],"is_active_output":true,"name":"Material Output","outputs":[],"type":"OUTPUT_MATERIAL_BL"},{"inputs":[[0.6618638038635254,0.6618638038635254,0.6618638038635254,1.0],0.0,1.4500000476837158,[0.0,0.0,0.0]],"is_active_output":false,"name":"Glass BSDF","outputs":[[0,0,0,0]],"type":"BSDF_GLASS_BL"}]}}},"name":"mGlass"},{"alphaMode":"OPAQUE","extensions":{"S8S_v3d_materials":{"gtaoVisible":true,"materialIndex":0,"nodeGraph":{"edges":[{"fromNode":0,"fromOutput":0,"toInput":0,"toNode":1},{"fromNode":2,"fromOutput":0,"toInput":0,"toNode":0}],"nodes":[{"inputs":[[0.800000011920929,0.800000011920929,0.800000011920929,1.0],0.0,0.5,1.4500000476837158,1.0,[0.0,0.0,0.0],0.0,[1.0,0.20000000298023224,0.10000000149011612],0.05000000074505806,1.399999976158142,0.0,0.5,[1.0,1.0,1.0,1.0],0.0,0.0,[0.0,0.0,0.0],0.0,0.0,0.029999999329447746,1.5,[1.0,1.0,1.0,1.0],[0.0,0.0,0.0],0.0,0.5,[1.0,1.0,1.0,1.0],[0.0,0.0,0.0,1.0],1.0,0.0,1.3300000429153442],"is_active_output":false,"name":"Principled BSDF","outputs":[[0,0,0,0]],"type":"BSDF_PRINCIPLED_BL"},{"inputs":[[0,0,0,0],[0,0,0,0],[0.0,0.0,0.0],0.0],"is_active_output":true,"name":"Material Output","outputs":[],"type":"OUTPUT_MATERIAL_BL"},{"inputs":[[0.21403515338897705,0.21403515338897705,0.21403515338897705,1.0],0.30000001192092896,[0.0,0.0,0.0]],"is_active_output":false,"name":"Ambient Occlusion","outputs":[[0.0,0.0,0.0,0.0],0.0],"type":"AMBIENT_OCCLUSION_BL"}]}}},"name":"mWhite"},{"alphaMode":"OPAQUE","extensions":{"S8S_v3d_materials":{"gtaoVisible":true,"materialIndex":0,"nodeGraph":{"edges":[{"fromNode":0,"fromOutput":0,"toInput":0,"toNode":1},{"fromNode":2,"fromOutput":0,"toInput":0,"toNode":0}],"nodes":[{"inputs":[[0.800000011920929,0.800000011920929,0.800000011920929,1.0],0.0,0.5,1.4500000476837158,1.0,[0.0,0.0,0.0],0.0,[1.0,0.20000000298023224,0.10000000149011612],0.05000000074505806,1.399999976158142,0.0,0.5,[1.0,1.0,1.0,1.0],0.0,0.0,[0.0,0.0,0.0],0.0,0.0,0.029999999329447746,1.5,[1.0,1.0,1.0,1.0],[0.0,0.0,0.0],0.0,0.5,[1.0,1.0,1.0,1.0],[0.0,0.0,0.0,1.0],1.0,0.0,1.3300000429153442],"is_active_output":false,"name":"Principled BSDF","outputs":[[0,0,0,0]],"type":"BSDF_PRINCIPLED_BL"},{"inputs":[[0,0,0,0],[0,0,0,0],[0.0,0.0,0.0],0.0],"is_active_output":true,"name":"Material Output","outputs":[],"type":"OUTPUT_MATERIAL_BL"},{"inputs":[[0.787399411201477,0.787399411201477,0.787399411201477,1.0],0.30000001192092896,[0.0,0.0,0.0]],"is_active_output":false,"name":"Ambient Occlusion","outputs":[[0.0,0.0,0.0,0.0],0.0],"type":"AMBIENT_OCCLUSION_BL"}]}}},"name":"mWhite.001"},{"alphaMode":"OPAQUE","extensions":{"S8S_v3d_materials":{"gtaoVisible":true,"materialIndex":0,"nodeGraph":{"edges":[{"fromNode":1,"fromOutput":0,"toInput":0,"toNode":0}],"nodes":[{"inputs":[[0,0,0,0],[0,0,0,0]],"is_active_output":true,"name":"World Output","outputs":[],"type":"OUTPUT_WORLD_BL"},{"inputs":[[0.7356585264205933,0.7356585264205933,0.7356585264205933,1.0],1.0],"is_active_output":false,"name":"Background","outputs":[[0,0,0,0]],"type":"BACKGROUND_BL"}]}}},"name":"Verge3D_Environment_World"},{"extensions":{"S8S_v3d_materials":{"nodeGraph":{"edges":[{"fromNode":1,"fromOutput":0,"toInput":0,"toNode":0}],"nodes":[{"inputs":[[0,0,0,0],[0,0,0,0],[0,0,0]],"is_active_output":true,"name":"Material Output","outputs":[],"type":"OUTPUT_MATERIAL_BL"},{"inputs":[[0.800000011920929,0.800000011920929,0.800000011920929,1.0],0.0,[0.0,0.0,0.0]],"is_active_output":false,"name":"Diffuse BSDF","outputs":[[0,0,0,0]],"type":"BSDF_DIFFUSE_BL"}]},"useCastShadows":true,"useShadows":true}},"name":"v3d_default_material"}],"meshes":[{"extensions":{"S8S_v3d_mesh":{"colorLayers":{},"uvLayers":{"Float2":"TEXCOORD_0"}}},"name":"Mesh.002","primitives":[{"attributes":{"NORMAL":2,"POSITION":1,"TEXCOORD_0":3},"indices":0,"material":1,"mode":4}]},{"extensions":{"S8S_v3d_mesh":{"colorLayers":{},"uvLayers":{}}},"name":"Mesh.003","primitives":[{"attributes":{"NORMAL":6,"POSITION":5},"indices":4,"material":6,"mode":4}]},{"extensions":{"S8S_v3d_mesh":{"colorLayers":{},"uvLayers":{}}},"name":"Mesh.004","primitives":[{"attributes":{"NORMAL":9,"POSITION":8,"TEXCOORD_0":10},"indices":7,"material":6,"mode":4}]},{"extensions":{"S8S_v3d_mesh":{"colorLayers":{},"uvLayers":{}}},"name":"Mesh.005","primitives":[{"attributes":{"NORMAL":13,"POSITION":12,"TEXCOORD_0":14},"indices":11,"material":6,"mode":4}]},{"extensions":{"S8S_v3d_mesh":{"colorLayers":{},"uvLayers":{"Float2":"TEXCOORD_0"}}},"name":"Mesh.006","primitives":[{"attributes":{"NORMAL":17,"POSITION":16,"TEXCOORD_0":18},"indices":15,"material":4,"mode":4}]},{"extensions":{"S8S_v3d_mesh":{"colorLayers":{},"uvLayers":{"UVChannel_1":"TEXCOORD_0"}}},"name":"Mesh.007","primitives":[{"attributes":{"NORMAL":21,"POSITION":20,"TEXCOORD_0":22},"indices":19,"material":1,"mode":4}]},{"extensions":{"S8S_v3d_mesh":{"colorLayers":{},"uvLayers":{}}},"name":"Mesh.008","primitives":[{"attributes":{"NORMAL":25,"POSITION":24,"TEXCOORD_0":26},"indices":23,"material":6,"mode":4}]},{"extensions":{"S8S_v3d_mesh":{"colorLayers":{},"uvLayers":{"UVChannel_1":"TEXCOORD_0"}}},"name":"Mesh.009","primitives":[{"attributes":{"NORMAL":29,"POSITION":28,"TEXCOORD_0":30},"indices":27,"material":4,"mode":4}]},{"extensions":{"S8S_v3d_mesh":{"colorLayers":{},"uvLayers":{"UVChannel_1":"TEXCOORD_0"}}},"name":"Mesh.010","primitives":[{"attributes":{"NORMAL":33,"POSITION":32,"TEXCOORD_0":34},"indices":31,"material":1,"mode":4}]},{"extensions":{"S8S_v3d_mesh":{"colorLayers":{},"uvLayers":{"UVChannel_1":"TEXCOORD_0"}}},"name":"Mesh.011","primitives":[{"attributes":{"NORMAL":37,"POSITION":36,"TEXCOORD_0":38},"indices":35,"material":3,"mode":4}]},{"extensions":{"S8S_v3d_mesh":{"colorLayers":{},"uvLayers":{"UVChannel_1":"TEXCOORD_0"}}},"name":"Mesh.012","primitives":[{"attributes":{"NORMAL":41,"POSITION":40,"TEXCOORD_0":42},"indices":39,"material":4,"mode":4}]},{"extensions":{"S8S_v3d_mesh":{"colorLayers":{},"uvLayers":{"UVChannel_1":"TEXCOORD_0","UVChannel_2":"TEXCOORD_1"}}},"name":"Mesh.013","primitives":[{"attributes":{"NORMAL":45,"POSITION":44,"TEXCOORD_0":46,"TEXCOORD_1":47},"indices":43,"material":1,"mode":4}]},{"extensions":{"S8S_v3d_mesh":{"colorLayers":{},"uvLayers":{"UVChannel_1":"TEXCOORD_0","UVChannel_2":"TEXCOORD_1"}}},"name":"Mesh.014","primitives":[{"attributes":{"NORMAL":50,"POSITION":49,"TEXCOORD_0":51,"TEXCOORD_1":52},"indices":48,"material":0,"mode":4}]},{"extensions":{"S8S_v3d_mesh":{"colorLayers":{},"uvLayers":{}}},"name":"Mesh.015","primitives":[{"attributes":{"NORMAL":55,"POSITION":54,"TEXCOORD_0":56,"TEXCOORD_1":57},"indices":53,"material":6,"mode":4}]},{"extensions":{"S8S_v3d_mesh":{"colorLayers":{},"uvLayers":{"UVChannel_1":"TEXCOORD_0","UVChannel_2":"TEXCOORD_1"}}},"name":"Mesh.016","primitives":[{"attributes":{"NORMAL":60,"POSITION":59,"TEXCOORD_0":61,"TEXCOORD_1":62},"indices":58,"material":2,"mode":4}]},{"extensions":{"S8S_v3d_mesh":{"colorLayers":{},"uvLayers":{"UVChannel_1":"TEXCOORD_0","UVChannel_2":"TEXCOORD_1"}}},"name":"Mesh.017","primitives":[{"attributes":{"NORMAL":65,"POSITION":64,"TEXCOORD_0":66,"TEXCOORD_1":67},"indices":63,"material":1,"mode":4}]},{"extensions":{"S8S_v3d_mesh":{"colorLayers":{},"uvLayers":{}}},"name":"Mesh.019","primitives":[{"attributes":{"NORMAL":70,"POSITION":69,"TEXCOORD_0":71,"TEXCOORD_1":72},"indices":68,"material":6,"mode":4}]},{"extensions":{"S8S_v3d_mesh":{"colorLayers":{},"uvLayers":{"UVChannel_1":"TEXCOORD_0"}}},"name":"Mesh.021","primitives":[{"attributes":{"NORMAL":75,"POSITION":74,"TEXCOORD_0":76},"indices":73,"material":0,"mode":4}]}],"nodes":[{"extensions":{"S8S_v3d_node":{"frustumCulling":true,"groupNames":["Collection","Swimming pool and gym"],"hidden":false,"hidpiCompositing":false,"objectColor":[0.800000011920929,0.800000011920929,0.800000011920929,1.0],"objectIndex":0,"renderOrder":0,"useCastShadows":true,"useShadows":true}},"mesh":6,"name":"wall.003"},{"camera":0,"extensions":{"S8S_v3d_node":{"frustumCulling":true,"groupNames":["Collection"],"hidden":false,"hidpiCompositing":false,"objectColor":[0.0,0.0,0.0,0.0],"objectIndex":0,"renderOrder":0,"useCastShadows":true}},"name":"Camera","rotation":[-0.20997299253940582,0.3857799470424652,0.09062844514846802,0.8937962055206299],"scale":[1.0,0.9999998807907104,0.9999998807907104],"translation":[7.358891487121582,4.958309173583984,6.925790786743164]},{"extensions":{"S8S_v3d_node":{"frustumCulling":true,"groupNames":["Collection","Swimming pool and gym"],"hidden":false,"hidpiCompositing":false,"objectColor":[0.800000011920929,0.800000011920929,0.800000011920929,1.0],"objectIndex":0,"renderOrder":0,"useCastShadows":true,"useShadows":true}},"mesh":16,"name":"Glass013_007"},{"extensions":{"S8S_v3d_lights":{"light":0},"S8S_v3d_node":{"frustumCulling":true,"groupNames":["Collection"],"hidden":false,"hidpiCompositing":false,"objectColor":[0.0,0.0,0.0,0.0],"objectIndex":0,"renderOrder":0,"useCastShadows":true}},"name":"Light","rotation":[-0.28416627645492554,0.7269423007965088,0.34203392267227173,0.5232754945755005],"scale":[1.0,0.9999998807907104,0.9999998807907104],"translation":[4.076245307922363,5.903861999511719,-1.0054539442062378]},{"extensions":{"S8S_v3d_node":{"frustumCulling":true,"groupNames":["Collection","Swimming pool and gym"],"hidden":false,"hidpiCompositing":false,"objectColor":[0.800000011920929,0.800000011920929,0.800000011920929,1.0],"objectIndex":0,"renderOrder":0,"useCastShadows":true,"useShadows":true}},"mesh":2,"name":"wall.004"},{"extensions":{"S8S_v3d_node":{"frustumCulling":true,"groupNames":["Collection","Swimming pool and gym"],"hidden":false,"hidpiCompositing":false,"objectColor":[0.800000011920929,0.800000011920929,0.800000011920929,1.0],"objectIndex":0,"renderOrder":0,"useCastShadows":true,"useShadows":true}},"mesh":8,"name":"roof"},{"extensions":{"S8S_v3d_node":{"frustumCulling":true,"groupNames":["Collection","Swimming pool and gym"],"hidden":false,"hidpiCompositing":false,"objectColor":[0.800000011920929,0.800000011920929,0.800000011920929,1.0],"objectIndex":0,"renderOrder":0,"useCastShadows":true,"useShadows":true}},"mesh":7,"name":"facade element"},{"extensions":{"S8S_v3d_node":{"frustumCulling":true,"groupNames":["Collection","Swimming pool and gym"],"hidden":false,"hidpiCompositing":false,"objectColor":[0.800000011920929,0.800000011920929,0.800000011920929,1.0],"objectIndex":0,"renderOrder":0,"useCastShadows":true,"useShadows":true}},"mesh":3,"name":"facade"},{"extensions":{"S8S_v3d_node":{"frustumCulling":true,"groupNames":["Collection","Swimming pool and gym"],"hidden":false,"hidpiCompositing":false,"objectColor":[0.800000011920929,0.800000011920929,0.800000011920929,1.0],"objectIndex":0,"renderOrder":0,"useCastShadows":true,"useShadows":true}},"mesh":0,"name":"roof.001"},{"extensions":{"S8S_v3d_node":{"frustumCulling":true,"groupNames":["Collection","Swimming pool and gym"],"hidden":false,"hidpiCompositing":false,"objectColor":[0.800000011920929,0.800000011920929,0.800000011920929,1.0],"objectIndex":0,"renderOrder":0,"useCastShadows":true,"useShadows":true}},"mesh":5,"name":"facade element.001"},{"children":[20,7,6,9,11,13,15,17,19,2,5,8,12,14,16,18,0,4],"extensions":{"S8S_v3d_node":{"frustumCulling":true,"groupNames":["Collection","Swimming pool and gym"],"hidden":false,"hidpiCompositing":false,"objectColor":[1.0,1.0,1.0,1.0],"objectIndex":0,"renderOrder":0,"useCastShadows":true}},"name":"Swimming pool and gym"},{"extensions":{"S8S_v3d_node":{"frustumCulling":true,"groupNames":["Collection","Swimming pool and gym"],"hidden":false,"hidpiCompositing":false,"objectColor":[0.800000011920929,0.800000011920929,0.800000011920929,1.0],"objectIndex":0,"renderOrder":0,"useCastShadows":true,"useShadows":true}},"mesh":13,"name":"frame"},{"extensions":{"S8S_v3d_node":{"frustumCulling":true,"groupNames":["Collection","Swimming pool and gym"],"hidden":false,"hidpiCompositing":false,"objectColor":[0.800000011920929,0.800000011920929,0.800000011920929,1.0],"objectIndex":0,"renderOrder":0,"useCastShadows":true,"useShadows":true}},"mesh":1,"name":"top"},{"extensions":{"S8S_v3d_node":{"frustumCulling":true,"groupNames":["Collection","Swimming pool and gym"],"hidden":false,"hidpiCompositing":false,"objectColor":[0.800000011920929,0.800000011920929,0.800000011920929,1.0],"objectIndex":0,"renderOrder":0,"useCastShadows":true,"useShadows":true}},"mesh":12,"name":"frame.001"},{"extensions":{"S8S_v3d_node":{"frustumCulling":true,"groupNames":["Collection","Swimming pool and gym"],"hidden":false,"hidpiCompositing":false,"objectColor":[0.800000011920929,0.800000011920929,0.800000011920929,1.0],"objectIndex":0,"renderOrder":0,"useCastShadows":true,"useShadows":true}},"mesh":10,"name":"wall"},{"extensions":{"S8S_v3d_node":{"frustumCulling":true,"groupNames":["Collection","Swimming pool and gym"],"hidden":false,"hidpiCompositing":false,"objectColor":[0.800000011920929,0.800000011920929,0.800000011920929,1.0],"objectIndex":0,"renderOrder":0,"useCastShadows":true,"useShadows":true}},"mesh":11,"name":"frame.002"},{"extensions":{"S8S_v3d_node":{"frustumCulling":true,"groupNames":["Collection","Swimming pool and gym"],"hidden":false,"hidpiCompositing":false,"objectColor":[0.800000011920929,0.800000011920929,0.800000011920929,1.0],"objectIndex":0,"renderOrder":0,"useCastShadows":true,"useShadows":true}},"mesh":9,"name":"wall.001"},{"extensions":{"S8S_v3d_node":{"frustumCulling":true,"groupNames":["Collection","Swimming pool and gym"],"hidden":false,"hidpiCompositing":false,"objectColor":[0.800000011920929,0.800000011920929,0.800000011920929,1.0],"objectIndex":0,"renderOrder":0,"useCastShadows":true,"useShadows":true}},"mesh":15,"name":"frame.003"},{"extensions":{"S8S_v3d_node":{"frustumCulling":true,"groupNames":["Collection","Swimming pool and gym"],"hidden":false,"hidpiCompositing":false,"objectColor":[0.800000011920929,0.800000011920929,0.800000011920929,1.0],"objectIndex":0,"renderOrder":0,"useCastShadows":true,"useShadows":true}},"mesh":4,"name":"wall.002"},{"extensions":{"S8S_v3d_node":{"frustumCulling":true,"groupNames":["Collection","Swimming pool and gym"],"hidden":false,"hidpiCompositing":false,"objectColor":[0.800000011920929,0.800000011920929,0.800000011920929,1.0],"objectIndex":0,"renderOrder":0,"useCastShadows":true,"useShadows":true}},"mesh":14,"name":"glass"},{"extensions":{"S8S_v3d_node":{"frustumCulling":true,"groupNames":["Collection","Swimming pool and gym"],"hidden":false,"hidpiCompositing":false,"objectColor":[0.800000011920929,0.800000011920929,0.800000011920929,1.0],"objectIndex":0,"renderOrder":0,"useCastShadows":true,"useShadows":true}},"mesh":17,"name":"base"}],"scene":0,"scenes":[{"extensions":{"S8S_v3d_scene":{"aaMethod":"AUTO","iblEnvironmentMode":"PMREM","physicallyCorrectLights":true,"pmremMaxTileSize":512,"shadowMap":{"esmDistanceScale":1.0,"renderReverseSided":false,"renderSingleSided":true,"type":"PCFPOISSON"},"toneMapping":{"type":"filmicBlender"},"worldMaterial":5}},"extras":{"animFrameRate":24,"coordSystem":"Z_UP_RIGHT"},"name":"Scene","nodes":[3,1,10]}]}
